<?xml version="1.0" encoding="UTF-8" standalone="no"?>
<!-- Created with Inkscape (http://www.inkscape.org/) -->

<svg
   width="147mm"
   height="147mm"
   viewBox="0 0 147 147"
   version="1.1"
   id="svg5"
   xml:space="preserve"
   inkscape:version="1.2.2 (b0a8486541, 2022-12-01)"
   sodipodi:docname="panonicana.svg"
   xmlns:inkscape="http://www.inkscape.org/namespaces/inkscape"
   xmlns:sodipodi="http://sodipodi.sourceforge.net/DTD/sodipodi-0.dtd"
   xmlns="http://www.w3.org/2000/svg"
   xmlns:svg="http://www.w3.org/2000/svg"><sodipodi:namedview
     id="namedview7"
     pagecolor="#505050"
     bordercolor="#eeeeee"
     borderopacity="1"
     inkscape:showpageshadow="0"
     inkscape:pageopacity="0"
     inkscape:pagecheckerboard="0"
     inkscape:deskcolor="#505050"
     inkscape:document-units="mm"
     showgrid="false"
     inkscape:zoom="0.70710678"
     inkscape:cx="126.57211"
     inkscape:cy="269.40768"
     inkscape:window-width="1920"
     inkscape:window-height="1011"
     inkscape:window-x="0"
     inkscape:window-y="0"
     inkscape:window-maximized="1"
     inkscape:current-layer="g17637" /><defs
     id="defs2" /><g
     inkscape:label="Layer 1"
     inkscape:groupmode="layer"
     id="layer1"><g
       id="g17637"
       transform="translate(10.604765,-14.473522)"><path
         style="fill:#fdce61;stroke-width:0.617431"
         d="m 17.543644,129.26619 c -4.087426,-4.0484 -9.3352419,-10.8693 -8.7854989,-11.41903 0.12047,-0.12042 2.2899459,1.03826 4.8210699,2.57494 5.387855,3.27105 13.625197,6.54468 20.453705,8.12856 l 4.844603,1.12373 -4.879296,1.04967 c -2.683612,0.57731 -5.93953,1.49263 -7.235375,2.03407 -1.295843,0.54145 -2.883387,0.98444 -3.527873,0.98444 -0.64449,0 -3.205593,-2.01437 -5.691335,-4.47638 z m 81.105785,3.22657 c -1.52814,-0.61698 -4.69011,-1.47267 -7.02664,-1.90155 l -4.24816,-0.77978 5.34276,-1.41829 c 6.66875,-1.77031 13.299841,-4.50847 18.381661,-7.59034 2.15177,-1.30494 4.00857,-2.28101 4.12621,-2.16902 0.88528,0.84287 -11.67364,15.19558 -13.16451,15.04478 -0.34807,-0.0353 -1.88317,-0.56884 -3.411321,-1.1858 z m 0.61745,-29.20583 c 6.219311,-5.897044 13.524671,-15.711447 17.283991,-23.220211 1.52019,-3.036451 2.1144,-3.748247 2.52158,-3.020645 1.69321,3.025615 3.22025,21.150389 1.94946,23.138786 -0.24951,0.39037 -3.79445,1.27679 -7.87764,1.96981 -4.08321,0.69301 -9.64008,1.95576 -12.34865,2.80611 l -4.924611,1.54606 z m -77.179029,1.11641 c -2.546908,-0.77171 -6.853494,-1.72365 -9.570198,-2.11541 -9.9729249,-1.43818 -8.8000499,-0.76103 -9.2931299,-5.36536 -0.45826,-4.279165 -0.08258,-9.891908 1.060728,-15.847679 l 0.687592,-3.581819 2.430157,4.478624 c 4.3393369,7.997125 9.9370629,15.089258 16.0899279,20.385404 2.300937,1.98056 3.968004,3.56689 3.704594,3.52519 -0.263415,-0.0417 -2.562764,-0.70723 -5.109671,-1.47895 z M 92.475129,84.066809 c 0,-0.128627 0.57021,-1.564171 1.26717,-3.190093 1.518,-3.541342 4.16909,-13.145205 6.526451,-23.642852 l 1.7213,-7.665015 3.32644,3.651705 c 3.28872,3.610317 10.00361,13.154227 10.00361,14.218235 0,0.302519 -2.2922,1.938349 -5.09381,3.635184 -2.80161,1.696839 -7.94172,5.367005 -11.422511,8.155927 -3.48076,2.788924 -6.32865,4.965532 -6.32865,4.836909 z M 27.555218,82.009704 C 24.023106,78.945641 17.662145,74.461797 13.139784,71.848258 10.760088,70.472995 8.7168701,69.269348 8.5993041,69.173491 8.0402951,68.717699 12.640405,61.321878 16.028167,57.229747 c 4.429867,-5.350895 3.725875,-6.000928 7.006145,6.469139 2.284862,8.685987 4.707987,15.699468 6.246073,18.078588 1.393112,2.154888 0.612351,2.259989 -1.725167,0.23224 z M 48.384774,81.723907 C 45.350052,77.770026 39.325576,70.389457 36.138045,66.720483 34.353219,64.666069 30.61331,60.257517 27.827129,56.923698 l -5.065783,-6.061495 2.571524,-2.14845 C 32.900211,42.39142 43.917807,37.145565 53.341449,35.377913 l 1.925566,-0.36119 -1.472764,5.062159 c -3.002845,10.321318 -4.703164,21.155617 -4.718868,30.06817 -0.0083,4.584435 0.277313,9.516174 0.634203,10.959424 0.356883,1.443245 0.551336,2.624086 0.432115,2.624086 -0.119215,0 -0.909835,-0.902993 -1.756927,-2.006655 z M 76.311129,70.820901 c 0.21517,-10.006701 -0.96834,-19.209686 -3.86334,-30.040993 -0.81115,-3.034776 -1.42964,-5.560793 -1.37444,-5.613368 0.0552,-0.05256 2.72203,0.568877 5.92632,1.381007 6.53122,1.655355 14.48072,5.35314 19.49582,9.068688 l 3.34168,2.475749 -1.82614,2.537841 c -1.00439,1.395815 -5.06083,6.70551 -9.01432,11.799325 -3.95351,5.093816 -8.44094,11.136935 -9.97211,13.429151 -1.53114,2.292216 -2.81258,4.168055 -2.84766,4.168531 -0.035,4.7e-4 0.0254,-4.142198 0.13418,-9.205931 z"
         id="path17673" /><path
         style="fill:#207a34;stroke-width:0.617431"
         d="m 61.939922,129.67239 c -0.0058,-1.77638 -0.106924,-3.08143 0.632263,-3.25501 0.923211,-0.11716 1.24182,-0.17054 1.942577,0.12899 0.497729,0.26716 0.32584,1.8938 0.309173,2.91556 -0.04834,2.96364 -0.235504,9.08721 -0.197979,14.64938 -0.154574,8.41126 0.150156,13.35815 -1.501802,13.36488 -1.766577,-0.0203 -1.475704,-4.98058 -1.559272,-13.4362 0.03045,-5.05949 0.219734,-10.31069 0.37504,-14.3676 z m -47.261256,16.38029 c -5.5828349,-0.97096 -5.5966369,-1.03239 -0.918401,-4.08774 8.792617,-5.74245 20.654238,-8.92139 24.343676,-9.63678 0.7851,-0.15224 2.24138,-0.47686 3.100759,-0.66153 1.27128,-0.27318 5.76755,-0.79643 12.601166,-0.79634 2.360799,2e-5 3.633353,-0.16566 4.284522,-0.20406 0.38102,-0.0224 2.104067,-0.60723 2.583033,-0.31119 0.6193,0.38275 -1.597355,1.88844 -5.616254,4.86967 -6.15467,4.56555 -13.670766,8.48351 -19.136674,9.97549 -4.361505,1.19052 -16.497775,1.67758 -21.241827,0.8525 z m 77.967783,-0.23412 c -4.315,-0.98579 -10.06977,-3.39699 -14.68098,-6.15118 -5.55334,-3.31691 -12.763018,-8.82119 -12.341491,-9.50324 0.281803,-0.45597 1.816296,0.18931 2.413779,0.29568 0.605402,0.10775 1.241612,0.41839 2.543032,0.58315 1.12434,0.14231 3.06625,0.30061 3.6203,0.40155 0.89009,0.1621 1.77193,0.0873 5.63547,0.28598 11.25643,0.57864 20.440971,2.80319 31.735781,10.04851 4.24421,2.72256 4.92196,3.37091 4.03978,3.8646 -1.84316,1.03148 -18.655851,1.15955 -22.965671,0.17494 z M 44.95758,127.29504 c -9.387673,0.23101 -27.489656,-6.0869 -34.697788,-11.1025 -4.2585464,-3.11427 -7.8336514,-5.58429 -11.4750969,-8.47423 -6.980626,-5.55324 -7.631214,-6.22535 -5.716155,-5.90546 14.486019,2.41989 20.8650579,3.61347 25.0376639,4.68483 7.656724,1.96593 17.850652,5.93111 20.651652,8.02262 2.317308,1.53528 4.557103,2.92471 6.956555,4.31235 2.616897,1.41722 4.553772,2.46649 7.379623,4.12029 1.305437,0.68733 1.925315,1.23452 2.99246,1.84491 1.159662,0.66688 2.420442,1.08671 2.42985,1.4141 0,0.31287 -1.52185,0.62979 -3.34334,0.96181 -1.861134,0.33924 -1.827578,0.29383 -4.18101,0.35785 -2.82447,-0.23507 -3.672297,-0.13941 -6.034414,-0.23657 z m 28.377149,-0.3442 c -3.06487,0 -5.250473,-0.39332 -4.93948,-0.65388 0.231801,-0.19421 0.201254,-0.18023 0.52394,-0.33006 0.307243,-0.14266 0.75506,-0.23036 1.78657,-0.85253 1.471725,-1.16317 3.698421,-1.89751 5.07616,-3.08048 1.117992,-0.83971 1.967469,-1.22509 2.97909,-1.87481 1.16841,-0.90045 2.171213,-1.49092 3.58753,-2.18535 1.089054,-0.75096 3.029899,-1.42476 3.79302,-2.12086 1.451793,-1.28779 4.167145,-2.1323 6.95097,-3.83177 4.187069,-2.66577 10.388271,-4.58841 15.559971,-6.05169 2.50263,-0.68658 8.55193,-1.95027 13.44286,-2.80818 4.89091,-0.85792 9.60448,-1.70989 10.47452,-1.89326 1.54294,-0.32522 1.55149,-0.30907 0.34705,0.65593 -0.67918,0.54415 -4.20025,3.55444 -8.27548,7.13946 -3.02662,2.35584 -7.98216,5.62662 -10.93399,7.65714 -1.83588,1.21202 -4.56667,3.01142 -8.04313,4.66671 -9.186438,4.1407 -17.532442,6.06403 -22.881211,5.77841 -4.370816,0.37887 -6.538309,-0.2076 -9.44839,-0.21478 z m -4.437512,-7.19821 c 1.485604,-2.04977 3.846501,-4.80319 4.816047,-6.08416 2.227895,-3.15157 3.12513,-4.65617 4.886558,-6.95611 2.107973,-2.59995 4.131702,-5.54277 6.743515,-8.774671 1.835919,-2.111795 3.684335,-4.043973 5.279482,-5.485834 6.434229,-7.23581 12.061161,-13.025488 18.935801,-18.455415 2.8854,-1.9884 4.37204,-2.907961 6.96256,-4.695599 1.69657,-1.419019 3.21833,-2.504542 4.96854,-3.614739 l -1.64466,3.619701 c -1.44116,2.984709 -2.93518,5.431919 -3.95838,8.413643 -2.36282,4.092953 -2.79988,4.808647 -5.48503,8.103078 -3.70292,4.545894 -4.01752,4.999131 -6.62085,8.305855 -3.47006,3.971452 -4.27632,5.303243 -7.040141,7.911131 -2.307026,1.76362 -4.646285,3.69817 -6.21835,4.78868 -4.414223,3.12921 -8.137686,5.19922 -11.865248,8.37275 -1.332511,0.99092 -1.835075,1.37259 -3.003554,2.24027 -1.430047,1.19457 -1.993777,1.68615 -3.686748,3.05725 -0.451147,0.52048 -1.42786,0.9762 -2.328954,1.61663 -1.218309,0.86588 -3.701912,2.79848 -3.765603,2.15707 -0.01596,-0.48562 1.823019,-2.75754 3.025015,-4.51953 z m -14.026672,1.03146 c -3.202426,-2.25142 -4.748475,-3.2726 -7.326461,-4.94871 -2.090809,-1.23051 -3.054091,-1.7496 -4.886953,-2.91728 C 37.17872,109.46056 27.189859,102.50756 20.835074,96.125272 13.656943,91.562738 9.790615,82.422694 6.4127321,76.787006 3.8692265,72.827465 1.7125891,68.065078 1.7125891,67.301623 c 0,-0.136964 2.431142,1.318674 5.40253,3.234708 7.5673809,4.879645 16.5163749,10.554908 19.7473649,13.944024 2.882798,3.14838 3.916822,3.763622 5.895069,6.311525 1.477378,1.809128 1.863461,2.026688 3.932373,4.125541 2.20521,2.791735 3.329867,3.766377 4.971503,5.796949 2.069381,1.94804 5.092119,5.73111 6.618709,7.61588 2.239721,2.67798 3.755241,4.49668 5.292424,7.0045 0.985474,1.53 2.585019,2.71406 3.432116,4.01793 0.904506,1.31726 3.664185,4.24057 3.544437,4.56837 -0.119749,0.32781 -4.451599,-2.34542 -5.67857,-3.13696 z m 6.764516,-5.56615 c -0.216009,-1.439 -1.103861,-4.41346 -1.593788,-7.38054 -1.383476,-5.00148 -2.436066,-8.967795 -3.523185,-14.042703 -1.754296,-7.088505 -2.632363,-12.243379 -3.336757,-16.855769 -0.438964,-7.05766 -0.184971,-14.256141 0.536889,-20.289841 0.938411,-6.225891 2.075173,-11.743921 4.168311,-20.761898 1.421779,-6.643434 3.24107,-13.606624 5.273755,-18.090482 1.80228,4.44261 3.192467,11.584321 4.731402,17.156101 1.786802,7.760378 3.55813,16.183968 4.660291,23.463042 1.056653,10.77835 -0.681738,22.035616 -2.61879,31.005118 -1.917102,6.430316 -3.112521,12.442602 -4.219807,17.702722 -0.758866,3.72461 -1.151542,7.52872 -1.41954,11.47187 -0.276037,1.37193 -0.316521,2.40346 -0.933387,3.37741 -0.596515,-0.92126 -1.239803,-4.09682 -1.725394,-6.75503 z m -7.361714,-3.85299 C 51.847318,107.25728 48.358562,103.8789 45.246859,100.03921 41.549808,95.504719 38.707201,92.143897 36.022758,87.983528 34.987337,86.594654 34.482689,86.259977 33.280295,84.64078 31.380004,81.795107 29.743124,78.021753 28.02342,72.765885 26.686631,68.680302 25.242563,64.274017 23.688257,60.297706 22.094322,55.25274 19.507884,50.964082 19.972195,49.30204 c 1.267699,0.551332 5.035719,6.262876 6.454645,7.986029 0.954503,1.290644 2.292652,4.005325 4.102761,6.310131 2.409566,2.564845 4.180899,5.258616 5.55194,7.05926 3.631726,4.783772 6.518231,8.945368 9.700763,13.420721 4.473161,7.253333 8.622493,17.798359 11.087223,26.544999 0.77551,2.58911 1.48755,4.46478 1.395713,5.72581 -1.297356,-0.59905 -2.531425,-2.97386 -3.991893,-4.98404 z m 15.946852,-3.86325 c 1.298396,-6.09622 2.502496,-11.976691 4.267278,-17.007131 2.852436,-6.452263 3.44238,-8.485738 6.895859,-13.12551 2.269406,-4.173001 4.615425,-6.705396 7.473183,-10.906059 2.237957,-3.133983 3.808406,-6.027992 5.387963,-8.087178 1.845336,-2.836036 6.270818,-10.754537 8.085938,-12.361125 -0.29902,2.091738 -3.130593,9.152376 -3.789771,11.161117 -0.600237,2.162811 -2.100544,6.009737 -3.04739,9.000611 -1.324471,4.45253 -2.805367,9.077231 -4.26233,13.23211 -2.658789,5.471253 -3.176346,7.281301 -6.12242,12.689754 -1.945905,2.680286 -3.759841,5.015186 -5.91153,7.910151 -2.000738,2.44233 -4.170015,5.50054 -5.59603,8.04163 -1.861669,3.10583 -3.218872,6.14796 -5.330718,8.12738 0.03988,-2.98191 1.018245,-5.74141 1.949968,-8.67575 z"
         id="path17641"
         sodipodi:nodetypes="cccsccccsssssssssssssssssssssscccsscccccscccsscccccccsssccccccccccccccccccccccscccccccsscccccccscccccccccccccccccccsccccccccccccccccccccccc" /></g><path
       style="fill:#ffffff;fill-opacity:1;stroke:#217b35;stroke-width:0.143311;stroke-linecap:square;stroke-linejoin:round;stroke-miterlimit:1;stroke-dasharray:none;stroke-dashoffset:2.4015;stroke-opacity:0.1"
       d=""
       id="path16284"
       transform="scale(0.26458333)" /><path
       style="fill:#ffffff;fill-opacity:1;stroke:#217b35;stroke-width:0.143311;stroke-linecap:square;stroke-linejoin:round;stroke-miterlimit:1;stroke-dasharray:none;stroke-dashoffset:2.4015;stroke-opacity:0.1"
       d=""
       id="path16290"
       transform="scale(0.26458333)" /><path
       style="fill:#ffffff;fill-opacity:1;stroke:#217b35;stroke-width:0.143311;stroke-linecap:square;stroke-linejoin:round;stroke-miterlimit:1;stroke-dasharray:none;stroke-dashoffset:2.4015;stroke-opacity:0.1"
       d=""
       id="path16292"
       transform="scale(0.26458333)" /><path
       style="fill:#ffffff;fill-opacity:1;stroke:#217b35;stroke-width:0.143311;stroke-linecap:square;stroke-linejoin:round;stroke-miterlimit:1;stroke-dasharray:none;stroke-dashoffset:2.4015;stroke-opacity:0.1"
       d=""
       id="path16294"
       transform="scale(0.26458333)" /><path
       style="fill:#ffffff;fill-opacity:1;stroke:#217b35;stroke-width:0.143311;stroke-linecap:square;stroke-linejoin:round;stroke-miterlimit:1;stroke-dasharray:none;stroke-dashoffset:2.4015;stroke-opacity:0.1"
       d=""
       id="path16296"
       transform="scale(0.26458333)" /><path
       style="fill:#ffffff;fill-opacity:1;stroke:#217b35;stroke-width:0.143311;stroke-linecap:square;stroke-linejoin:round;stroke-miterlimit:1;stroke-dasharray:none;stroke-dashoffset:2.4015;stroke-opacity:0.1"
       d=""
       id="path16298"
       transform="scale(0.26458333)" /><path
       style="fill:#ffffff;fill-opacity:1;stroke:#217b35;stroke-width:0.143311;stroke-linecap:square;stroke-linejoin:round;stroke-miterlimit:1;stroke-dasharray:none;stroke-dashoffset:2.4015;stroke-opacity:0.1"
       d=""
       id="path16300"
       transform="scale(0.26458333)" /><path
       style="fill:#ffffff;fill-opacity:1;stroke:#217b35;stroke-width:0.143311;stroke-linecap:square;stroke-linejoin:round;stroke-miterlimit:1;stroke-dasharray:none;stroke-dashoffset:2.4015;stroke-opacity:0.1"
       d=""
       id="path16302"
       transform="scale(0.26458333)" /><path
       style="fill:#ffffff;fill-opacity:1;stroke:#217b35;stroke-width:0.143311;stroke-linecap:square;stroke-linejoin:round;stroke-miterlimit:1;stroke-dasharray:none;stroke-dashoffset:2.4015;stroke-opacity:0.1"
       d=""
       id="path16306"
       transform="scale(0.26458333)" /><path
       style="fill:#ffffff;fill-opacity:1;stroke:#217b35;stroke-width:0.0506679;stroke-linecap:square;stroke-linejoin:round;stroke-miterlimit:1;stroke-dasharray:none;stroke-dashoffset:2.4015;stroke-opacity:0.1"
       d=""
       id="path16334"
       transform="scale(0.26458333)" /><path
       style="fill:#ffffff;fill-opacity:1;stroke:#217b35;stroke-width:0.0506679;stroke-linecap:square;stroke-linejoin:round;stroke-miterlimit:1;stroke-dasharray:none;stroke-dashoffset:2.4015;stroke-opacity:0.1"
       d=""
       id="path16336"
       transform="scale(0.26458333)" /><path
       style="fill:#ffffff;fill-opacity:1;stroke:#217b35;stroke-width:0.0506679;stroke-linecap:square;stroke-linejoin:round;stroke-miterlimit:1;stroke-dasharray:none;stroke-dashoffset:2.4015;stroke-opacity:0.1"
       d=""
       id="path16338"
       transform="scale(0.26458333)" /><path
       style="fill:#ffffff;fill-opacity:1;stroke:#217b35;stroke-width:0.0506679;stroke-linecap:square;stroke-linejoin:round;stroke-miterlimit:1;stroke-dasharray:none;stroke-dashoffset:2.4015;stroke-opacity:0.1"
       d=""
       id="path16340"
       transform="scale(0.26458333)" /><path
       style="fill:#ffffff;fill-opacity:1;stroke:#217b35;stroke-width:0.0506679;stroke-linecap:square;stroke-linejoin:round;stroke-miterlimit:1;stroke-dasharray:none;stroke-dashoffset:2.4015;stroke-opacity:0.1"
       d=""
       id="path16342"
       transform="scale(0.26458333)" /><path
       style="fill:#ffffff;fill-opacity:1;stroke:#217b35;stroke-width:0.0506679;stroke-linecap:square;stroke-linejoin:round;stroke-miterlimit:1;stroke-dasharray:none;stroke-dashoffset:2.4015;stroke-opacity:0.1"
       d=""
       id="path16344"
       transform="scale(0.26458333)" /><path
       style="fill:#ffffff;fill-opacity:1;stroke:#217b35;stroke-width:0.0506679;stroke-linecap:square;stroke-linejoin:round;stroke-miterlimit:1;stroke-dasharray:none;stroke-dashoffset:2.4015;stroke-opacity:0.1"
       d=""
       id="path16346"
       transform="scale(0.26458333)" /><path
       style="fill:#ffffff;fill-opacity:1;stroke:#217b35;stroke-width:0.0506679;stroke-linecap:square;stroke-linejoin:round;stroke-miterlimit:1;stroke-dasharray:none;stroke-dashoffset:2.4015;stroke-opacity:0.1"
       d=""
       id="path16348"
       transform="scale(0.26458333)" /><path
       style="fill:#ffffff;fill-opacity:1;stroke:#217b35;stroke-width:0.0506679;stroke-linecap:square;stroke-linejoin:round;stroke-miterlimit:1;stroke-dasharray:none;stroke-dashoffset:2.4015;stroke-opacity:0.1"
       d=""
       id="path16350"
       transform="scale(0.26458333)" /><path
       style="fill:#ffffff;fill-opacity:1;stroke:#217b35;stroke-width:0.0506679;stroke-linecap:square;stroke-linejoin:round;stroke-miterlimit:1;stroke-dasharray:none;stroke-dashoffset:2.4015;stroke-opacity:0.1"
       d=""
       id="path16352"
       transform="scale(0.26458333)" /><path
       style="fill:#ffffff;fill-opacity:1;stroke:#217b35;stroke-width:0.0506679;stroke-linecap:square;stroke-linejoin:round;stroke-miterlimit:1;stroke-dasharray:none;stroke-dashoffset:2.4015;stroke-opacity:0.1"
       d=""
       id="path16354"
       transform="scale(0.26458333)" /><path
       style="fill:#ffffff;fill-opacity:1;stroke:#217b35;stroke-width:0.0506679;stroke-linecap:square;stroke-linejoin:round;stroke-miterlimit:1;stroke-dasharray:none;stroke-dashoffset:2.4015;stroke-opacity:0.1"
       d=""
       id="path16356"
       transform="scale(0.26458333)" /><path
       style="fill:#ffffff;fill-opacity:1;stroke:#217b35;stroke-width:0.0506679;stroke-linecap:square;stroke-linejoin:round;stroke-miterlimit:1;stroke-dasharray:none;stroke-dashoffset:2.4015;stroke-opacity:0.1"
       d=""
       id="path16358"
       transform="scale(0.26458333)" /><path
       style="fill:#ffffff;fill-opacity:1;stroke:#217b35;stroke-width:0.0506679;stroke-linecap:square;stroke-linejoin:round;stroke-miterlimit:1;stroke-dasharray:none;stroke-dashoffset:2.4015;stroke-opacity:0.1"
       d=""
       id="path16360"
       transform="scale(0.26458333)" /><path
       style="fill:#ffffff;fill-opacity:1;stroke:#217b35;stroke-width:0.0506679;stroke-linecap:square;stroke-linejoin:round;stroke-miterlimit:1;stroke-dasharray:none;stroke-dashoffset:2.4015;stroke-opacity:0.1"
       d=""
       id="path16362"
       transform="scale(0.26458333)" /><path
       style="fill:#ffffff;fill-opacity:1;stroke:#217b35;stroke-width:0.0506679;stroke-linecap:square;stroke-linejoin:round;stroke-miterlimit:1;stroke-dasharray:none;stroke-dashoffset:2.4015;stroke-opacity:0.1"
       d=""
       id="path16364"
       transform="scale(0.26458333)" /><path
       style="fill:#ffffff;fill-opacity:1;stroke:#217b35;stroke-width:0.0506679;stroke-linecap:square;stroke-linejoin:round;stroke-miterlimit:1;stroke-dasharray:none;stroke-dashoffset:2.4015;stroke-opacity:0.1"
       d=""
       id="path16366"
       transform="scale(0.26458333)" /><path
       style="fill:#ffffff;fill-opacity:1;stroke:#217b35;stroke-width:0.0506679;stroke-linecap:square;stroke-linejoin:round;stroke-miterlimit:1;stroke-dasharray:none;stroke-dashoffset:2.4015;stroke-opacity:0.1"
       d=""
       id="path16368"
       transform="scale(0.26458333)" /><path
       style="fill:#ffffff;fill-opacity:1;stroke:#217b35;stroke-width:0.0506679;stroke-linecap:square;stroke-linejoin:round;stroke-miterlimit:1;stroke-dasharray:none;stroke-dashoffset:2.4015;stroke-opacity:0.1"
       d=""
       id="path16370"
       transform="scale(0.26458333)" /><path
       style="fill:#ffffff;fill-opacity:1;stroke:#217b35;stroke-width:0.0506679;stroke-linecap:square;stroke-linejoin:round;stroke-miterlimit:1;stroke-dasharray:none;stroke-dashoffset:2.4015;stroke-opacity:0.1"
       d=""
       id="path16372"
       transform="scale(0.26458333)" /><path
       style="fill:#ffffff;fill-opacity:1;stroke:#217b35;stroke-width:0.0506679;stroke-linecap:square;stroke-linejoin:round;stroke-miterlimit:1;stroke-dasharray:none;stroke-dashoffset:2.4015;stroke-opacity:0.1"
       d=""
       id="path16378"
       transform="scale(0.26458333)" /><path
       style="fill:#ffffff;fill-opacity:1;stroke:#217b35;stroke-width:0.00447845;stroke-linecap:square;stroke-linejoin:round;stroke-miterlimit:1;stroke-dasharray:none;stroke-dashoffset:2.4015;stroke-opacity:0.1"
       d=""
       id="path16394"
       transform="scale(0.26458333)" /><path
       style="fill:#ffffff;fill-opacity:1;stroke:#217b35;stroke-width:0.00447845;stroke-linecap:square;stroke-linejoin:round;stroke-miterlimit:1;stroke-dasharray:none;stroke-dashoffset:2.4015;stroke-opacity:0.1"
       d=""
       id="path16396"
       transform="scale(0.26458333)" /><path
       style="fill:#ffffff;fill-opacity:1;stroke:#217b35;stroke-width:0.00447845;stroke-linecap:square;stroke-linejoin:round;stroke-miterlimit:1;stroke-dasharray:none;stroke-dashoffset:2.4015;stroke-opacity:0.1"
       d=""
       id="path16398"
       transform="scale(0.26458333)" /><path
       style="fill:#ffffff;fill-opacity:1;stroke:#217b35;stroke-width:0.00447845;stroke-linecap:square;stroke-linejoin:round;stroke-miterlimit:1;stroke-dasharray:none;stroke-dashoffset:2.4015;stroke-opacity:0.1"
       d=""
       id="path16400"
       transform="scale(0.26458333)" /><path
       style="fill:#ffffff;fill-opacity:1;stroke:#217b35;stroke-width:0.00447845;stroke-linecap:square;stroke-linejoin:round;stroke-miterlimit:1;stroke-dasharray:none;stroke-dashoffset:2.4015;stroke-opacity:0.1"
       d=""
       id="path16414"
       transform="scale(0.26458333)" /><path
       style="fill:#ffffff;fill-opacity:1;stroke:#217b35;stroke-width:0.0506679;stroke-linecap:square;stroke-linejoin:round;stroke-miterlimit:1;stroke-dasharray:none;stroke-dashoffset:2.4015;stroke-opacity:0.1"
       d=""
       id="path17250"
       transform="scale(0.26458333)" /><path
       style="fill:#ffffff;fill-opacity:1;stroke:#217b35;stroke-width:0.0506679;stroke-linecap:square;stroke-linejoin:round;stroke-miterlimit:1;stroke-dasharray:none;stroke-dashoffset:2.4015;stroke-opacity:0.1"
       d=""
       id="path17252"
       transform="scale(0.26458333)" /><path
       style="fill:#ffffff;fill-opacity:1;stroke:#217b35;stroke-width:0.0506679;stroke-linecap:square;stroke-linejoin:round;stroke-miterlimit:1;stroke-dasharray:none;stroke-dashoffset:2.4015;stroke-opacity:0.1"
       d=""
       id="path17256"
       transform="scale(0.26458333)" /></g></svg>
